<mxfile host="app.diagrams.net" modified="2023-08-09T09:13:28.102Z" agent="Mozilla/5.0 (Macintosh; Intel Mac OS X 10_15_7) AppleWebKit/537.36 (KHTML, like Gecko) Chrome/115.0.0.0 Safari/537.36" version="21.6.6" etag="1xp17Yu63Wo5Cvi5zbIt" type="github">
  <diagram name="第 1 页" id="kwIzFST5W4AGIodNWWfJ">
    <mxGraphModel>
      <root>
        <mxCell id="0" />
        <mxCell id="1" parent="0" />
      </root>
    </mxGraphModel>
  </diagram>
</mxfile>
